<svg width="186" height="20" viewBox="0 0 186 20" fill="none" xmlns="http://www.w3.org/2000/svg">
<path d="M1.68 16V4.8H6.704C7.99467 4.8 8.98667 5.06133 9.68 5.584C10.3733 6.096 10.72 6.8 10.72 7.696C10.72 8.304 10.5813 8.816 10.304 9.232C10.0373 9.648 9.67467 9.968 9.216 10.192C8.75733 10.416 8.26133 10.528 7.728 10.528L8.016 10.048C8.656 10.048 9.22133 10.16 9.712 10.384C10.2027 10.608 10.592 10.9387 10.88 11.376C11.168 11.8027 11.312 12.336 11.312 12.976C11.312 13.936 10.9493 14.6827 10.224 15.216C9.50933 15.7387 8.44267 16 7.024 16H1.68ZM3.28 14.704H6.96C7.84533 14.704 8.52267 14.5547 8.992 14.256C9.46133 13.9573 9.696 13.488 9.696 12.848C9.696 12.1973 9.46133 11.7227 8.992 11.424C8.52267 11.1253 7.84533 10.976 6.96 10.976H3.136V9.68H6.56C7.37067 9.68 8 9.53067 8.448 9.232C8.896 8.93333 9.12 8.48533 9.12 7.888C9.12 7.29067 8.896 6.84267 8.448 6.544C8 6.24533 7.37067 6.096 6.56 6.096H3.28V14.704ZM16.3334 16.096C15.608 16.096 14.968 15.9627 14.4134 15.696C13.8694 15.4293 13.4427 15.024 13.1334 14.48C12.8347 13.9253 12.6854 13.232 12.6854 12.4V7.52H14.2214V12.224C14.2214 13.056 14.4187 13.68 14.8134 14.096C15.2187 14.512 15.784 14.72 16.5094 14.72C17.0427 14.72 17.5067 14.6133 17.9014 14.4C18.296 14.176 18.6 13.856 18.8134 13.44C19.0267 13.0133 19.1334 12.5013 19.1334 11.904V7.52H20.6694V16H19.2134V13.712L19.4534 14.32C19.176 14.8853 18.76 15.3227 18.2054 15.632C17.6507 15.9413 17.0267 16.096 16.3334 16.096ZM25.2255 16.096C24.5215 16.096 23.8495 16 23.2095 15.808C22.5802 15.616 22.0842 15.3813 21.7215 15.104L22.3615 13.888C22.7242 14.1333 23.1722 14.3413 23.7055 14.512C24.2388 14.6827 24.7828 14.768 25.3375 14.768C26.0522 14.768 26.5642 14.6667 26.8735 14.464C27.1935 14.2613 27.3535 13.9787 27.3535 13.616C27.3535 13.3493 27.2575 13.1413 27.0655 12.992C26.8735 12.8427 26.6175 12.7307 26.2975 12.656C25.9882 12.5813 25.6415 12.5173 25.2575 12.464C24.8735 12.4 24.4895 12.3253 24.1055 12.24C23.7215 12.144 23.3695 12.016 23.0495 11.856C22.7295 11.6853 22.4735 11.456 22.2815 11.168C22.0895 10.8693 21.9935 10.4747 21.9935 9.984C21.9935 9.472 22.1375 9.024 22.4255 8.64C22.7135 8.256 23.1188 7.96267 23.6415 7.76C24.1748 7.54667 24.8042 7.44 25.5295 7.44C26.0842 7.44 26.6442 7.50933 27.2095 7.648C27.7855 7.776 28.2548 7.96267 28.6175 8.208L27.9615 9.424C27.5775 9.168 27.1775 8.992 26.7615 8.896C26.3455 8.8 25.9295 8.752 25.5135 8.752C24.8415 8.752 24.3402 8.864 24.0095 9.088C23.6788 9.30133 23.5135 9.57867 23.5135 9.92C23.5135 10.208 23.6095 10.432 23.8015 10.592C24.0042 10.7413 24.2602 10.8587 24.5695 10.944C24.8895 11.0293 25.2415 11.104 25.6255 11.168C26.0095 11.2213 26.3935 11.296 26.7775 11.392C27.1615 11.4773 27.5082 11.6 27.8175 11.76C28.1375 11.92 28.3935 12.144 28.5855 12.432C28.7882 12.72 28.8895 13.104 28.8895 13.584C28.8895 14.096 28.7402 14.5387 28.4415 14.912C28.1428 15.2853 27.7215 15.5787 27.1775 15.792C26.6335 15.9947 25.9828 16.096 25.2255 16.096ZM30.0091 16V7.52H31.5451V16H30.0091ZM30.7771 5.888C30.4785 5.888 30.2278 5.792 30.0251 5.6C29.8331 5.408 29.7371 5.17333 29.7371 4.896C29.7371 4.608 29.8331 4.368 30.0251 4.176C30.2278 3.984 30.4785 3.888 30.7771 3.888C31.0758 3.888 31.3211 3.984 31.5131 4.176C31.7158 4.35733 31.8171 4.58667 31.8171 4.864C31.8171 5.152 31.7211 5.39733 31.5291 5.6C31.3371 5.792 31.0865 5.888 30.7771 5.888ZM38.2059 7.44C38.8992 7.44 39.5072 7.57333 40.0299 7.84C40.5632 8.10667 40.9792 8.512 41.2779 9.056C41.5765 9.6 41.7259 10.288 41.7259 11.12V16H40.1899V11.296C40.1899 10.4747 39.9872 9.856 39.5819 9.44C39.1872 9.024 38.6272 8.816 37.9019 8.816C37.3579 8.816 36.8832 8.92267 36.4779 9.136C36.0725 9.34933 35.7579 9.664 35.5339 10.08C35.3205 10.496 35.2139 11.0133 35.2139 11.632V16H33.6779V7.52H35.1499V9.808L34.9099 9.2C35.1872 8.64533 35.6139 8.21333 36.1899 7.904C36.7659 7.59467 37.4379 7.44 38.2059 7.44ZM47.5445 16.096C46.6378 16.096 45.8378 15.9093 45.1445 15.536C44.4618 15.1627 43.9285 14.6507 43.5445 14C43.1712 13.3493 42.9845 12.6027 42.9845 11.76C42.9845 10.9173 43.1658 10.1707 43.5285 9.52C43.9018 8.86933 44.4085 8.36267 45.0485 8C45.6992 7.62667 46.4298 7.44 47.2405 7.44C48.0618 7.44 48.7872 7.62133 49.4165 7.984C50.0458 8.34667 50.5365 8.85867 50.8885 9.52C51.2512 10.1707 51.4325 10.9333 51.4325 11.808C51.4325 11.872 51.4272 11.9467 51.4165 12.032C51.4165 12.1173 51.4112 12.1973 51.4005 12.272H44.1845V11.168H50.6005L49.9765 11.552C49.9872 11.008 49.8752 10.5227 49.6405 10.096C49.4058 9.66933 49.0805 9.33867 48.6645 9.104C48.2592 8.85867 47.7845 8.736 47.2405 8.736C46.7072 8.736 46.2325 8.85867 45.8165 9.104C45.4005 9.33867 45.0752 9.67467 44.8405 10.112C44.6058 10.5387 44.4885 11.0293 44.4885 11.584V11.84C44.4885 12.4053 44.6165 12.912 44.8725 13.36C45.1392 13.7973 45.5072 14.1387 45.9765 14.384C46.4458 14.6293 46.9845 14.752 47.5925 14.752C48.0938 14.752 48.5472 14.6667 48.9525 14.496C49.3685 14.3253 49.7312 14.0693 50.0405 13.728L50.8885 14.72C50.5045 15.168 50.0245 15.5093 49.4485 15.744C48.8832 15.9787 48.2485 16.096 47.5445 16.096ZM55.1974 16.096C54.4934 16.096 53.8214 16 53.1814 15.808C52.552 15.616 52.056 15.3813 51.6934 15.104L52.3334 13.888C52.696 14.1333 53.144 14.3413 53.6774 14.512C54.2107 14.6827 54.7547 14.768 55.3094 14.768C56.024 14.768 56.536 14.6667 56.8454 14.464C57.1654 14.2613 57.3254 13.9787 57.3254 13.616C57.3254 13.3493 57.2294 13.1413 57.0374 12.992C56.8454 12.8427 56.5894 12.7307 56.2694 12.656C55.96 12.5813 55.6134 12.5173 55.2294 12.464C54.8454 12.4 54.4614 12.3253 54.0774 12.24C53.6934 12.144 53.3414 12.016 53.0214 11.856C52.7014 11.6853 52.4454 11.456 52.2534 11.168C52.0614 10.8693 51.9654 10.4747 51.9654 9.984C51.9654 9.472 52.1094 9.024 52.3974 8.64C52.6854 8.256 53.0907 7.96267 53.6134 7.76C54.1467 7.54667 54.776 7.44 55.5014 7.44C56.056 7.44 56.616 7.50933 57.1814 7.648C57.7574 7.776 58.2267 7.96267 58.5894 8.208L57.9334 9.424C57.5494 9.168 57.1494 8.992 56.7334 8.896C56.3174 8.8 55.9014 8.752 55.4854 8.752C54.8134 8.752 54.312 8.864 53.9814 9.088C53.6507 9.30133 53.4854 9.57867 53.4854 9.92C53.4854 10.208 53.5814 10.432 53.7734 10.592C53.976 10.7413 54.232 10.8587 54.5414 10.944C54.8614 11.0293 55.2134 11.104 55.5974 11.168C55.9814 11.2213 56.3654 11.296 56.7494 11.392C57.1334 11.4773 57.48 11.6 57.7894 11.76C58.1094 11.92 58.3654 12.144 58.5574 12.432C58.76 12.72 58.8614 13.104 58.8614 13.584C58.8614 14.096 58.712 14.5387 58.4134 14.912C58.1147 15.2853 57.6934 15.5787 57.1494 15.792C56.6054 15.9947 55.9547 16.096 55.1974 16.096ZM62.413 16.096C61.709 16.096 61.037 16 60.397 15.808C59.7677 15.616 59.2717 15.3813 58.909 15.104L59.549 13.888C59.9117 14.1333 60.3597 14.3413 60.893 14.512C61.4263 14.6827 61.9703 14.768 62.525 14.768C63.2397 14.768 63.7517 14.6667 64.061 14.464C64.381 14.2613 64.541 13.9787 64.541 13.616C64.541 13.3493 64.445 13.1413 64.253 12.992C64.061 12.8427 63.805 12.7307 63.485 12.656C63.1757 12.5813 62.829 12.5173 62.445 12.464C62.061 12.4 61.677 12.3253 61.293 12.24C60.909 12.144 60.557 12.016 60.237 11.856C59.917 11.6853 59.661 11.456 59.469 11.168C59.277 10.8693 59.181 10.4747 59.181 9.984C59.181 9.472 59.325 9.024 59.613 8.64C59.901 8.256 60.3063 7.96267 60.829 7.76C61.3623 7.54667 61.9917 7.44 62.717 7.44C63.2717 7.44 63.8317 7.50933 64.397 7.648C64.973 7.776 65.4423 7.96267 65.805 8.208L65.149 9.424C64.765 9.168 64.365 8.992 63.949 8.896C63.533 8.8 63.117 8.752 62.701 8.752C62.029 8.752 61.5277 8.864 61.197 9.088C60.8663 9.30133 60.701 9.57867 60.701 9.92C60.701 10.208 60.797 10.432 60.989 10.592C61.1917 10.7413 61.4477 10.8587 61.757 10.944C62.077 11.0293 62.429 11.104 62.813 11.168C63.197 11.2213 63.581 11.296 63.965 11.392C64.349 11.4773 64.6957 11.6 65.005 11.76C65.325 11.92 65.581 12.144 65.773 12.432C65.9757 12.72 66.077 13.104 66.077 13.584C66.077 14.096 65.9277 14.5387 65.629 14.912C65.3303 15.2853 64.909 15.5787 64.365 15.792C63.821 15.9947 63.1703 16.096 62.413 16.096Z" fill="#8447E9"/>
<rect x="77" y="1" width="2" height="18" fill="#8447E9"/>
<path d="M88.984 16L94.056 4.8H95.64L100.728 16H99.048L94.52 5.696H95.16L90.632 16H88.984ZM91.144 13.2L91.576 11.92H97.88L98.344 13.2H91.144ZM105.871 16.096C105.167 16.096 104.521 15.936 103.935 15.616C103.359 15.2853 102.895 14.8 102.543 14.16C102.201 13.52 102.031 12.72 102.031 11.76C102.031 10.8 102.196 10 102.527 9.36C102.868 8.72 103.327 8.24 103.903 7.92C104.489 7.6 105.145 7.44 105.871 7.44C106.703 7.44 107.439 7.62133 108.079 7.984C108.719 8.34667 109.225 8.85333 109.599 9.504C109.972 10.144 110.159 10.896 110.159 11.76C110.159 12.624 109.972 13.3813 109.599 14.032C109.225 14.6827 108.719 15.1893 108.079 15.552C107.439 15.9147 106.703 16.096 105.871 16.096ZM101.375 19.104V7.52H102.847V9.808L102.751 11.776L102.911 13.744V19.104H101.375ZM105.743 14.752C106.287 14.752 106.772 14.6293 107.199 14.384C107.636 14.1387 107.977 13.792 108.223 13.344C108.479 12.8853 108.607 12.3573 108.607 11.76C108.607 11.152 108.479 10.6293 108.223 10.192C107.977 9.744 107.636 9.39733 107.199 9.152C106.772 8.90667 106.287 8.784 105.743 8.784C105.209 8.784 104.724 8.90667 104.287 9.152C103.86 9.39733 103.519 9.744 103.263 10.192C103.017 10.6293 102.895 11.152 102.895 11.76C102.895 12.3573 103.017 12.8853 103.263 13.344C103.519 13.792 103.86 14.1387 104.287 14.384C104.724 14.6293 105.209 14.752 105.743 14.752ZM111.481 16V7.52H112.953V9.824L112.809 9.248C113.044 8.66133 113.438 8.21333 113.993 7.904C114.548 7.59467 115.23 7.44 116.041 7.44V8.928C115.977 8.91733 115.913 8.912 115.849 8.912C115.796 8.912 115.742 8.912 115.689 8.912C114.868 8.912 114.217 9.15733 113.737 9.648C113.257 10.1387 113.017 10.848 113.017 11.776V16H111.481ZM117.134 16V7.52H118.67V16H117.134ZM117.902 5.888C117.603 5.888 117.353 5.792 117.15 5.6C116.958 5.408 116.862 5.17333 116.862 4.896C116.862 4.608 116.958 4.368 117.15 4.176C117.353 3.984 117.603 3.888 117.902 3.888C118.201 3.888 118.446 3.984 118.638 4.176C118.841 4.35733 118.942 4.58667 118.942 4.864C118.942 5.152 118.846 5.39733 118.654 5.6C118.462 5.792 118.211 5.888 117.902 5.888ZM120.803 16V4.128H122.339V16H120.803ZM127.105 16V14.912L131.665 10.512C132.07 10.128 132.369 9.792 132.561 9.504C132.763 9.20533 132.897 8.93333 132.961 8.688C133.035 8.432 133.073 8.18667 133.073 7.952C133.073 7.376 132.87 6.92267 132.465 6.592C132.059 6.26133 131.467 6.096 130.689 6.096C130.091 6.096 129.553 6.19733 129.073 6.4C128.593 6.592 128.177 6.896 127.825 7.312L126.737 6.368C127.163 5.824 127.734 5.408 128.449 5.12C129.174 4.82133 129.969 4.672 130.833 4.672C131.611 4.672 132.289 4.8 132.865 5.056C133.441 5.30133 133.883 5.65867 134.193 6.128C134.513 6.59733 134.673 7.152 134.673 7.792C134.673 8.15467 134.625 8.512 134.529 8.864C134.433 9.216 134.251 9.58933 133.985 9.984C133.718 10.3787 133.334 10.8213 132.833 11.312L128.769 15.232L128.385 14.608H135.153V16H127.105ZM139.284 16.128C138.495 16.128 137.727 16.0053 136.98 15.76C136.244 15.5147 135.641 15.184 135.172 14.768L135.908 13.504C136.281 13.856 136.767 14.144 137.364 14.368C137.961 14.592 138.596 14.704 139.268 14.704C140.121 14.704 140.777 14.5227 141.236 14.16C141.695 13.7973 141.924 13.312 141.924 12.704C141.924 12.288 141.823 11.9253 141.62 11.616C141.417 11.3067 141.065 11.072 140.564 10.912C140.073 10.7413 139.396 10.656 138.532 10.656H135.988L136.58 4.8H142.9V6.192H137.172L138.004 5.408L137.54 10.032L136.708 9.264H138.868C139.988 9.264 140.889 9.408 141.572 9.696C142.255 9.984 142.751 10.384 143.06 10.896C143.369 11.3973 143.524 11.9787 143.524 12.64C143.524 13.28 143.369 13.8667 143.06 14.4C142.751 14.9227 142.281 15.344 141.652 15.664C141.033 15.9733 140.244 16.128 139.284 16.128ZM144.135 18.368L144.935 15.136L145.143 16.064C144.834 16.064 144.573 15.968 144.359 15.776C144.157 15.584 144.055 15.3227 144.055 14.992C144.055 14.672 144.157 14.4107 144.359 14.208C144.573 14.0053 144.829 13.904 145.127 13.904C145.437 13.904 145.687 14.0107 145.879 14.224C146.071 14.4267 146.167 14.6827 146.167 14.992C146.167 15.0987 146.157 15.2053 146.135 15.312C146.125 15.408 146.098 15.5253 146.055 15.664C146.023 15.792 145.97 15.952 145.895 16.144L145.143 18.368H144.135ZM150.201 16V14.912L154.761 10.512C155.167 10.128 155.465 9.792 155.657 9.504C155.86 9.20533 155.993 8.93333 156.057 8.688C156.132 8.432 156.169 8.18667 156.169 7.952C156.169 7.376 155.967 6.92267 155.561 6.592C155.156 6.26133 154.564 6.096 153.785 6.096C153.188 6.096 152.649 6.19733 152.169 6.4C151.689 6.592 151.273 6.896 150.921 7.312L149.833 6.368C150.26 5.824 150.831 5.408 151.545 5.12C152.271 4.82133 153.065 4.672 153.929 4.672C154.708 4.672 155.385 4.8 155.961 5.056C156.537 5.30133 156.98 5.65867 157.289 6.128C157.609 6.59733 157.769 7.152 157.769 7.792C157.769 8.15467 157.721 8.512 157.625 8.864C157.529 9.216 157.348 9.58933 157.081 9.984C156.815 10.3787 156.431 10.8213 155.929 11.312L151.865 15.232L151.481 14.608H158.249V16H150.201ZM163.325 16.128C162.451 16.128 161.667 15.904 160.973 15.456C160.291 15.008 159.747 14.3573 159.341 13.504C158.947 12.6507 158.749 11.616 158.749 10.4C158.749 9.184 158.947 8.14933 159.341 7.296C159.747 6.44267 160.291 5.792 160.973 5.344C161.667 4.896 162.451 4.672 163.325 4.672C164.189 4.672 164.968 4.896 165.661 5.344C166.355 5.792 166.899 6.44267 167.293 7.296C167.688 8.14933 167.885 9.184 167.885 10.4C167.885 11.616 167.688 12.6507 167.293 13.504C166.899 14.3573 166.355 15.008 165.661 15.456C164.968 15.904 164.189 16.128 163.325 16.128ZM163.325 14.704C163.912 14.704 164.424 14.544 164.861 14.224C165.309 13.904 165.656 13.424 165.901 12.784C166.157 12.144 166.285 11.3493 166.285 10.4C166.285 9.45067 166.157 8.656 165.901 8.016C165.656 7.376 165.309 6.896 164.861 6.576C164.424 6.256 163.912 6.096 163.325 6.096C162.739 6.096 162.221 6.256 161.773 6.576C161.325 6.896 160.973 7.376 160.717 8.016C160.472 8.656 160.349 9.45067 160.349 10.4C160.349 11.3493 160.472 12.144 160.717 12.784C160.973 13.424 161.325 13.904 161.773 14.224C162.221 14.544 162.739 14.704 163.325 14.704ZM168.445 16V14.912L173.005 10.512C173.41 10.128 173.709 9.792 173.901 9.504C174.104 9.20533 174.237 8.93333 174.301 8.688C174.376 8.432 174.413 8.18667 174.413 7.952C174.413 7.376 174.21 6.92267 173.805 6.592C173.4 6.26133 172.808 6.096 172.029 6.096C171.432 6.096 170.893 6.19733 170.413 6.4C169.933 6.592 169.517 6.896 169.165 7.312L168.077 6.368C168.504 5.824 169.074 5.408 169.789 5.12C170.514 4.82133 171.309 4.672 172.173 4.672C172.952 4.672 173.629 4.8 174.205 5.056C174.781 5.30133 175.224 5.65867 175.533 6.128C175.853 6.59733 176.013 7.152 176.013 7.792C176.013 8.15467 175.965 8.512 175.869 8.864C175.773 9.216 175.592 9.58933 175.325 9.984C175.058 10.3787 174.674 10.8213 174.173 11.312L170.109 15.232L169.725 14.608H176.493V16H168.445ZM176.833 16V14.912L181.393 10.512C181.798 10.128 182.097 9.792 182.289 9.504C182.491 9.20533 182.625 8.93333 182.689 8.688C182.763 8.432 182.801 8.18667 182.801 7.952C182.801 7.376 182.598 6.92267 182.193 6.592C181.787 6.26133 181.195 6.096 180.417 6.096C179.819 6.096 179.281 6.19733 178.801 6.4C178.321 6.592 177.905 6.896 177.553 7.312L176.465 6.368C176.891 5.824 177.462 5.408 178.177 5.12C178.902 4.82133 179.697 4.672 180.561 4.672C181.339 4.672 182.017 4.8 182.593 5.056C183.169 5.30133 183.611 5.65867 183.921 6.128C184.241 6.59733 184.401 7.152 184.401 7.792C184.401 8.15467 184.353 8.512 184.257 8.864C184.161 9.216 183.979 9.58933 183.713 9.984C183.446 10.3787 183.062 10.8213 182.561 11.312L178.497 15.232L178.113 14.608H184.881V16H176.833Z" fill="#8447E9"/>
</svg>
