<svg width="207" height="20" viewBox="0 0 207 20" fill="none" xmlns="http://www.w3.org/2000/svg">
<path d="M4.35603 16V6.192H0.516026V4.8H9.78003V6.192H5.94003V16H4.35603ZM13.3997 16.096C12.493 16.096 11.693 15.9093 10.9997 15.536C10.317 15.1627 9.78365 14.6507 9.39965 14C9.02632 13.3493 8.83965 12.6027 8.83965 11.76C8.83965 10.9173 9.02098 10.1707 9.38365 9.52C9.75698 8.86933 10.2637 8.36267 10.9037 8C11.5543 7.62667 12.285 7.44 13.0957 7.44C13.917 7.44 14.6423 7.62133 15.2717 7.984C15.901 8.34667 16.3917 8.85867 16.7437 9.52C17.1063 10.1707 17.2877 10.9333 17.2877 11.808C17.2877 11.872 17.2823 11.9467 17.2717 12.032C17.2717 12.1173 17.2663 12.1973 17.2557 12.272H10.0397V11.168H16.4557L15.8317 11.552C15.8423 11.008 15.7303 10.5227 15.4957 10.096C15.261 9.66933 14.9357 9.33867 14.5197 9.104C14.1143 8.85867 13.6397 8.736 13.0957 8.736C12.5623 8.736 12.0877 8.85867 11.6717 9.104C11.2557 9.33867 10.9303 9.67467 10.6957 10.112C10.461 10.5387 10.3437 11.0293 10.3437 11.584V11.84C10.3437 12.4053 10.4717 12.912 10.7277 13.36C10.9943 13.7973 11.3623 14.1387 11.8317 14.384C12.301 14.6293 12.8397 14.752 13.4477 14.752C13.949 14.752 14.4023 14.6667 14.8077 14.496C15.2237 14.3253 15.5863 14.0693 15.8957 13.728L16.7437 14.72C16.3597 15.168 15.8797 15.5093 15.3037 15.744C14.7383 15.9787 14.1037 16.096 13.3997 16.096ZM22.3165 16.096C21.4525 16.096 20.6792 15.9093 19.9965 15.536C19.3245 15.1627 18.7965 14.6507 18.4125 14C18.0285 13.3493 17.8365 12.6027 17.8365 11.76C17.8365 10.9173 18.0285 10.1707 18.4125 9.52C18.7965 8.86933 19.3245 8.36267 19.9965 8C20.6792 7.62667 21.4525 7.44 22.3165 7.44C23.0845 7.44 23.7672 7.59467 24.3645 7.904C24.9725 8.20267 25.4419 8.65067 25.7725 9.248L24.6045 10C24.3272 9.584 23.9859 9.28 23.5805 9.088C23.1859 8.88533 22.7592 8.784 22.3005 8.784C21.7459 8.784 21.2499 8.90667 20.8125 9.152C20.3752 9.39733 20.0285 9.744 19.7725 10.192C19.5165 10.6293 19.3885 11.152 19.3885 11.76C19.3885 12.368 19.5165 12.896 19.7725 13.344C20.0285 13.792 20.3752 14.1387 20.8125 14.384C21.2499 14.6293 21.7459 14.752 22.3005 14.752C22.7592 14.752 23.1859 14.656 23.5805 14.464C23.9859 14.2613 24.3272 13.952 24.6045 13.536L25.7725 14.272C25.4419 14.8587 24.9725 15.312 24.3645 15.632C23.7672 15.9413 23.0845 16.096 22.3165 16.096ZM31.3798 7.44C32.0731 7.44 32.6811 7.57333 33.2038 7.84C33.7371 8.10667 34.1531 8.512 34.4518 9.056C34.7504 9.6 34.8998 10.288 34.8998 11.12V16H33.3638V11.296C33.3638 10.4747 33.1611 9.856 32.7558 9.44C32.3611 9.024 31.8011 8.816 31.0758 8.816C30.5318 8.816 30.0571 8.92267 29.6518 9.136C29.2464 9.34933 28.9318 9.664 28.7078 10.08C28.4944 10.496 28.3878 11.0133 28.3878 11.632V16H26.8518V4.128H28.3878V9.808L28.0838 9.2C28.3611 8.64533 28.7878 8.21333 29.3638 7.904C29.9398 7.59467 30.6118 7.44 31.3798 7.44ZM41.4704 7.44C42.1637 7.44 42.7717 7.57333 43.2944 7.84C43.8277 8.10667 44.2437 8.512 44.5424 9.056C44.8411 9.6 44.9904 10.288 44.9904 11.12V16H43.4544V11.296C43.4544 10.4747 43.2517 9.856 42.8464 9.44C42.4517 9.024 41.8917 8.816 41.1664 8.816C40.6224 8.816 40.1477 8.92267 39.7424 9.136C39.3371 9.34933 39.0224 9.664 38.7984 10.08C38.5851 10.496 38.4784 11.0133 38.4784 11.632V16H36.9424V7.52H38.4144V9.808L38.1744 9.2C38.4517 8.64533 38.8784 8.21333 39.4544 7.904C40.0304 7.59467 40.7024 7.44 41.4704 7.44ZM50.665 16.096C49.8117 16.096 49.0544 15.9093 48.393 15.536C47.7317 15.1627 47.209 14.6507 46.825 14C46.441 13.3387 46.249 12.592 46.249 11.76C46.249 10.9173 46.441 10.1707 46.825 9.52C47.209 8.86933 47.7317 8.36267 48.393 8C49.0544 7.62667 49.8117 7.44 50.665 7.44C51.5077 7.44 52.2597 7.62667 52.921 8C53.593 8.36267 54.1157 8.86933 54.489 9.52C54.873 10.16 55.065 10.9067 55.065 11.76C55.065 12.6027 54.873 13.3493 54.489 14C54.1157 14.6507 53.593 15.1627 52.921 15.536C52.2597 15.9093 51.5077 16.096 50.665 16.096ZM50.665 14.752C51.209 14.752 51.6944 14.6293 52.121 14.384C52.5584 14.1387 52.8997 13.792 53.145 13.344C53.3904 12.8853 53.513 12.3573 53.513 11.76C53.513 11.152 53.3904 10.6293 53.145 10.192C52.8997 9.744 52.5584 9.39733 52.121 9.152C51.6944 8.90667 51.209 8.784 50.665 8.784C50.121 8.784 49.6357 8.90667 49.209 9.152C48.7824 9.39733 48.441 9.744 48.185 10.192C47.929 10.6293 47.801 11.152 47.801 11.76C47.801 12.3573 47.929 12.8853 48.185 13.344C48.441 13.792 48.7824 14.1387 49.209 14.384C49.6357 14.6293 50.121 14.752 50.665 14.752ZM56.3893 16V4.128H57.9253V16H56.3893ZM63.69 16.096C62.8367 16.096 62.0794 15.9093 61.418 15.536C60.7567 15.1627 60.234 14.6507 59.85 14C59.466 13.3387 59.274 12.592 59.274 11.76C59.274 10.9173 59.466 10.1707 59.85 9.52C60.234 8.86933 60.7567 8.36267 61.418 8C62.0794 7.62667 62.8367 7.44 63.69 7.44C64.5327 7.44 65.2847 7.62667 65.946 8C66.618 8.36267 67.1407 8.86933 67.514 9.52C67.898 10.16 68.09 10.9067 68.09 11.76C68.09 12.6027 67.898 13.3493 67.514 14C67.1407 14.6507 66.618 15.1627 65.946 15.536C65.2847 15.9093 64.5327 16.096 63.69 16.096ZM63.69 14.752C64.234 14.752 64.7194 14.6293 65.146 14.384C65.5834 14.1387 65.9247 13.792 66.17 13.344C66.4154 12.8853 66.538 12.3573 66.538 11.76C66.538 11.152 66.4154 10.6293 66.17 10.192C65.9247 9.744 65.5834 9.39733 65.146 9.152C64.7194 8.90667 64.234 8.784 63.69 8.784C63.146 8.784 62.6607 8.90667 62.234 9.152C61.8074 9.39733 61.466 9.744 61.21 10.192C60.954 10.6293 60.826 11.152 60.826 11.76C60.826 12.3573 60.954 12.8853 61.21 13.344C61.466 13.792 61.8074 14.1387 62.234 14.384C62.6607 14.6293 63.146 14.752 63.69 14.752ZM73.1263 19.2C72.3476 19.2 71.5903 19.088 70.8543 18.864C70.1289 18.6507 69.5369 18.3413 69.0783 17.936L69.8143 16.752C70.2089 17.0933 70.6943 17.36 71.2703 17.552C71.8463 17.7547 72.4489 17.856 73.0783 17.856C74.0809 17.856 74.8169 17.6213 75.2863 17.152C75.7556 16.6827 75.9903 15.968 75.9903 15.008V13.216L76.1503 11.536L76.0703 9.84V7.52H77.5263V14.848C77.5263 16.3413 77.1529 17.44 76.4063 18.144C75.6596 18.848 74.5663 19.2 73.1263 19.2ZM72.9343 15.648C72.1129 15.648 71.3769 15.4773 70.7263 15.136C70.0863 14.784 69.5743 14.2987 69.1903 13.68C68.8169 13.0613 68.6303 12.3467 68.6303 11.536C68.6303 10.7147 68.8169 10 69.1903 9.392C69.5743 8.77333 70.0863 8.29333 70.7263 7.952C71.3769 7.61067 72.1129 7.44 72.9343 7.44C73.6596 7.44 74.3209 7.58933 74.9183 7.888C75.5156 8.176 75.9903 8.624 76.3423 9.232C76.7049 9.84 76.8863 10.608 76.8863 11.536C76.8863 12.4533 76.7049 13.216 76.3423 13.824C75.9903 14.432 75.5156 14.8907 74.9183 15.2C74.3209 15.4987 73.6596 15.648 72.9343 15.648ZM73.1103 14.304C73.6756 14.304 74.1769 14.1867 74.6143 13.952C75.0516 13.7173 75.3929 13.392 75.6383 12.976C75.8943 12.56 76.0223 12.08 76.0223 11.536C76.0223 10.992 75.8943 10.512 75.6383 10.096C75.3929 9.68 75.0516 9.36 74.6143 9.136C74.1769 8.90133 73.6756 8.784 73.1103 8.784C72.5449 8.784 72.0383 8.90133 71.5903 9.136C71.1529 9.36 70.8063 9.68 70.5503 10.096C70.3049 10.512 70.1823 10.992 70.1823 11.536C70.1823 12.08 70.3049 12.56 70.5503 12.976C70.8063 13.392 71.1529 13.7173 71.5903 13.952C72.0383 14.1867 72.5449 14.304 73.1103 14.304ZM80.0292 19.2C79.6238 19.2 79.2292 19.1307 78.8452 18.992C78.4612 18.864 78.1305 18.672 77.8532 18.416L78.5092 17.264C78.7225 17.4667 78.9572 17.6213 79.2132 17.728C79.4692 17.8347 79.7412 17.888 80.0292 17.888C80.4025 17.888 80.7118 17.792 80.9572 17.6C81.2025 17.408 81.4318 17.0667 81.6452 16.576L82.1732 15.408L82.3332 15.216L85.6612 7.52H87.1652L83.0532 16.848C82.8078 17.4453 82.5305 17.9147 82.2212 18.256C81.9225 18.5973 81.5918 18.8373 81.2292 18.976C80.8665 19.1253 80.4665 19.2 80.0292 19.2ZM82.0452 16.272L78.1732 7.52H79.7732L83.0692 15.072L82.0452 16.272Z" fill="#8447E9"/>
<rect x="97.452" y="1" width="2" height="18" fill="#8447E9"/>
<path d="M112.572 16.128C111.911 16.128 111.292 15.9893 110.716 15.712C110.14 15.4347 109.671 15.0347 109.308 14.512L110.236 13.424C110.545 13.8507 110.892 14.1813 111.276 14.416C111.671 14.64 112.103 14.752 112.572 14.752C113.852 14.752 114.492 13.9947 114.492 12.48V6.192H110.444V4.8H116.076V12.4C116.076 13.648 115.777 14.5813 115.18 15.2C114.593 15.8187 113.724 16.128 112.572 16.128ZM121.879 16.096C121.154 16.096 120.514 15.9627 119.959 15.696C119.415 15.4293 118.988 15.024 118.679 14.48C118.38 13.9253 118.231 13.232 118.231 12.4V7.52H119.767V12.224C119.767 13.056 119.964 13.68 120.359 14.096C120.764 14.512 121.33 14.72 122.055 14.72C122.588 14.72 123.052 14.6133 123.447 14.4C123.842 14.176 124.146 13.856 124.359 13.44C124.572 13.0133 124.679 12.5013 124.679 11.904V7.52H126.215V16H124.759V13.712L124.999 14.32C124.722 14.8853 124.306 15.3227 123.751 15.632C123.196 15.9413 122.572 16.096 121.879 16.096ZM132.867 7.44C133.561 7.44 134.169 7.57333 134.691 7.84C135.225 8.10667 135.641 8.512 135.939 9.056C136.238 9.6 136.387 10.288 136.387 11.12V16H134.851V11.296C134.851 10.4747 134.649 9.856 134.243 9.44C133.849 9.024 133.289 8.816 132.563 8.816C132.019 8.816 131.545 8.92267 131.139 9.136C130.734 9.34933 130.419 9.664 130.195 10.08C129.982 10.496 129.875 11.0133 129.875 11.632V16H128.339V7.52H129.811V9.808L129.571 9.2C129.849 8.64533 130.275 8.21333 130.851 7.904C131.427 7.59467 132.099 7.44 132.867 7.44ZM142.206 16.096C141.299 16.096 140.499 15.9093 139.806 15.536C139.123 15.1627 138.59 14.6507 138.206 14C137.833 13.3493 137.646 12.6027 137.646 11.76C137.646 10.9173 137.827 10.1707 138.19 9.52C138.563 8.86933 139.07 8.36267 139.71 8C140.361 7.62667 141.091 7.44 141.902 7.44C142.723 7.44 143.449 7.62133 144.078 7.984C144.707 8.34667 145.198 8.85867 145.55 9.52C145.913 10.1707 146.094 10.9333 146.094 11.808C146.094 11.872 146.089 11.9467 146.078 12.032C146.078 12.1173 146.073 12.1973 146.062 12.272H138.846V11.168H145.262L144.638 11.552C144.649 11.008 144.537 10.5227 144.302 10.096C144.067 9.66933 143.742 9.33867 143.326 9.104C142.921 8.85867 142.446 8.736 141.902 8.736C141.369 8.736 140.894 8.85867 140.478 9.104C140.062 9.33867 139.737 9.67467 139.502 10.112C139.267 10.5387 139.15 11.0293 139.15 11.584V11.84C139.15 12.4053 139.278 12.912 139.534 13.36C139.801 13.7973 140.169 14.1387 140.638 14.384C141.107 14.6293 141.646 14.752 142.254 14.752C142.755 14.752 143.209 14.6667 143.614 14.496C144.03 14.3253 144.393 14.0693 144.702 13.728L145.55 14.72C145.166 15.168 144.686 15.5093 144.11 15.744C143.545 15.9787 142.91 16.096 142.206 16.096ZM152.124 16V5.44L152.812 6.192H149.596V4.8H153.708V16H152.124ZM159.934 16.128C159.059 16.128 158.275 15.904 157.582 15.456C156.899 15.008 156.355 14.3573 155.95 13.504C155.555 12.6507 155.358 11.616 155.358 10.4C155.358 9.184 155.555 8.14933 155.95 7.296C156.355 6.44267 156.899 5.792 157.582 5.344C158.275 4.896 159.059 4.672 159.934 4.672C160.798 4.672 161.576 4.896 162.27 5.344C162.963 5.792 163.507 6.44267 163.902 7.296C164.296 8.14933 164.494 9.184 164.494 10.4C164.494 11.616 164.296 12.6507 163.902 13.504C163.507 14.3573 162.963 15.008 162.27 15.456C161.576 15.904 160.798 16.128 159.934 16.128ZM159.934 14.704C160.52 14.704 161.032 14.544 161.47 14.224C161.918 13.904 162.264 13.424 162.51 12.784C162.766 12.144 162.894 11.3493 162.894 10.4C162.894 9.45067 162.766 8.656 162.51 8.016C162.264 7.376 161.918 6.896 161.47 6.576C161.032 6.256 160.52 6.096 159.934 6.096C159.347 6.096 158.83 6.256 158.382 6.576C157.934 6.896 157.582 7.376 157.326 8.016C157.08 8.656 156.958 9.45067 156.958 10.4C156.958 11.3493 157.08 12.144 157.326 12.784C157.582 13.424 157.934 13.904 158.382 14.224C158.83 14.544 159.347 14.704 159.934 14.704ZM165.122 18.368L165.922 15.136L166.13 16.064C165.821 16.064 165.559 15.968 165.346 15.776C165.143 15.584 165.042 15.3227 165.042 14.992C165.042 14.672 165.143 14.4107 165.346 14.208C165.559 14.0053 165.815 13.904 166.114 13.904C166.423 13.904 166.674 14.0107 166.866 14.224C167.058 14.4267 167.154 14.6827 167.154 14.992C167.154 15.0987 167.143 15.2053 167.122 15.312C167.111 15.408 167.085 15.5253 167.042 15.664C167.01 15.792 166.957 15.952 166.882 16.144L166.13 18.368H165.122ZM171.188 16V14.912L175.748 10.512C176.153 10.128 176.452 9.792 176.644 9.504C176.846 9.20533 176.98 8.93333 177.044 8.688C177.118 8.432 177.156 8.18667 177.156 7.952C177.156 7.376 176.953 6.92267 176.548 6.592C176.142 6.26133 175.55 6.096 174.772 6.096C174.174 6.096 173.636 6.19733 173.156 6.4C172.676 6.592 172.26 6.896 171.908 7.312L170.82 6.368C171.246 5.824 171.817 5.408 172.532 5.12C173.257 4.82133 174.052 4.672 174.916 4.672C175.694 4.672 176.372 4.8 176.948 5.056C177.524 5.30133 177.966 5.65867 178.276 6.128C178.596 6.59733 178.756 7.152 178.756 7.792C178.756 8.15467 178.708 8.512 178.612 8.864C178.516 9.216 178.334 9.58933 178.068 9.984C177.801 10.3787 177.417 10.8213 176.916 11.312L172.852 15.232L172.468 14.608H179.236V16H171.188ZM184.312 16.128C183.437 16.128 182.653 15.904 181.96 15.456C181.277 15.008 180.733 14.3573 180.328 13.504C179.933 12.6507 179.736 11.616 179.736 10.4C179.736 9.184 179.933 8.14933 180.328 7.296C180.733 6.44267 181.277 5.792 181.96 5.344C182.653 4.896 183.437 4.672 184.312 4.672C185.176 4.672 185.954 4.896 186.648 5.344C187.341 5.792 187.885 6.44267 188.28 7.296C188.674 8.14933 188.872 9.184 188.872 10.4C188.872 11.616 188.674 12.6507 188.28 13.504C187.885 14.3573 187.341 15.008 186.648 15.456C185.954 15.904 185.176 16.128 184.312 16.128ZM184.312 14.704C184.898 14.704 185.41 14.544 185.848 14.224C186.296 13.904 186.642 13.424 186.888 12.784C187.144 12.144 187.272 11.3493 187.272 10.4C187.272 9.45067 187.144 8.656 186.888 8.016C186.642 7.376 186.296 6.896 185.848 6.576C185.41 6.256 184.898 6.096 184.312 6.096C183.725 6.096 183.208 6.256 182.76 6.576C182.312 6.896 181.96 7.376 181.704 8.016C181.458 8.656 181.336 9.45067 181.336 10.4C181.336 11.3493 181.458 12.144 181.704 12.784C181.96 13.424 182.312 13.904 182.76 14.224C183.208 14.544 183.725 14.704 184.312 14.704ZM189.432 16V14.912L193.992 10.512C194.397 10.128 194.696 9.792 194.888 9.504C195.09 9.20533 195.224 8.93333 195.288 8.688C195.362 8.432 195.4 8.18667 195.4 7.952C195.4 7.376 195.197 6.92267 194.792 6.592C194.386 6.26133 193.794 6.096 193.016 6.096C192.418 6.096 191.88 6.19733 191.4 6.4C190.92 6.592 190.504 6.896 190.152 7.312L189.064 6.368C189.49 5.824 190.061 5.408 190.776 5.12C191.501 4.82133 192.296 4.672 193.16 4.672C193.938 4.672 194.616 4.8 195.192 5.056C195.768 5.30133 196.21 5.65867 196.52 6.128C196.84 6.59733 197 7.152 197 7.792C197 8.15467 196.952 8.512 196.856 8.864C196.76 9.216 196.578 9.58933 196.312 9.984C196.045 10.3787 195.661 10.8213 195.16 11.312L191.096 15.232L190.712 14.608H197.48V16H189.432ZM197.819 16V14.912L202.379 10.512C202.784 10.128 203.083 9.792 203.275 9.504C203.478 9.20533 203.611 8.93333 203.675 8.688C203.75 8.432 203.787 8.18667 203.787 7.952C203.787 7.376 203.584 6.92267 203.179 6.592C202.774 6.26133 202.182 6.096 201.403 6.096C200.806 6.096 200.267 6.19733 199.787 6.4C199.307 6.592 198.891 6.896 198.539 7.312L197.451 6.368C197.878 5.824 198.448 5.408 199.163 5.12C199.888 4.82133 200.683 4.672 201.547 4.672C202.326 4.672 203.003 4.8 203.579 5.056C204.155 5.30133 204.598 5.65867 204.907 6.128C205.227 6.59733 205.387 7.152 205.387 7.792C205.387 8.15467 205.339 8.512 205.243 8.864C205.147 9.216 204.966 9.58933 204.699 9.984C204.432 10.3787 204.048 10.8213 203.547 11.312L199.483 15.232L199.099 14.608H205.867V16H197.819Z" fill="#8447E9"/>
</svg>
