<svg width="174" height="20" viewBox="0 0 174 20" fill="none" xmlns="http://www.w3.org/2000/svg">
<path d="M5.84799 16.128C4.99466 16.128 4.17866 16 3.39999 15.744C2.62133 15.4773 2.00799 15.136 1.55999 14.72L2.15199 13.472C2.57866 13.8453 3.12266 14.1547 3.78399 14.4C4.44533 14.6453 5.13333 14.768 5.84799 14.768C6.49866 14.768 7.02666 14.6933 7.43199 14.544C7.83733 14.3947 8.13599 14.192 8.32799 13.936C8.51999 13.6693 8.61599 13.3707 8.61599 13.04C8.61599 12.656 8.48799 12.3467 8.23199 12.112C7.98666 11.8773 7.66133 11.6907 7.25599 11.552C6.86133 11.4027 6.42399 11.2747 5.94399 11.168C5.46399 11.0613 4.97866 10.9387 4.48799 10.8C4.00799 10.6507 3.56533 10.464 3.15999 10.24C2.76533 10.016 2.44533 9.71733 2.19999 9.344C1.95466 8.96 1.83199 8.46933 1.83199 7.872C1.83199 7.296 1.98133 6.768 2.27999 6.288C2.58933 5.79733 3.05866 5.408 3.68799 5.12C4.32799 4.82133 5.13866 4.672 6.11999 4.672C6.77066 4.672 7.41599 4.75733 8.05599 4.928C8.69599 5.09867 9.25066 5.344 9.71999 5.664L9.19199 6.944C8.71199 6.624 8.20533 6.39467 7.67199 6.256C7.13866 6.10667 6.62133 6.032 6.11999 6.032C5.49066 6.032 4.97333 6.112 4.56799 6.272C4.16266 6.432 3.86399 6.64533 3.67199 6.912C3.49066 7.17867 3.39999 7.47733 3.39999 7.808C3.39999 8.20267 3.52266 8.51733 3.76799 8.752C4.02399 8.98667 4.34933 9.17333 4.74399 9.312C5.14933 9.45067 5.59199 9.57867 6.07199 9.696C6.55199 9.80267 7.03199 9.92533 7.51199 10.064C8.00266 10.2027 8.44533 10.384 8.83999 10.608C9.24533 10.832 9.57066 11.1307 9.81599 11.504C10.0613 11.8773 10.184 12.3573 10.184 12.944C10.184 13.5093 10.0293 14.0373 9.71999 14.528C9.41066 15.008 8.93066 15.3973 8.27999 15.696C7.63999 15.984 6.82933 16.128 5.84799 16.128ZM15.1935 16.096C14.3295 16.096 13.5562 15.9093 12.8735 15.536C12.2015 15.1627 11.6735 14.6507 11.2895 14C10.9055 13.3493 10.7135 12.6027 10.7135 11.76C10.7135 10.9173 10.9055 10.1707 11.2895 9.52C11.6735 8.86933 12.2015 8.36267 12.8735 8C13.5562 7.62667 14.3295 7.44 15.1935 7.44C15.9615 7.44 16.6442 7.59467 17.2415 7.904C17.8495 8.20267 18.3188 8.65067 18.6495 9.248L17.4815 10C17.2042 9.584 16.8628 9.28 16.4575 9.088C16.0628 8.88533 15.6362 8.784 15.1775 8.784C14.6228 8.784 14.1268 8.90667 13.6895 9.152C13.2522 9.39733 12.9055 9.744 12.6495 10.192C12.3935 10.6293 12.2655 11.152 12.2655 11.76C12.2655 12.368 12.3935 12.896 12.6495 13.344C12.9055 13.792 13.2522 14.1387 13.6895 14.384C14.1268 14.6293 14.6228 14.752 15.1775 14.752C15.6362 14.752 16.0628 14.656 16.4575 14.464C16.8628 14.2613 17.2042 13.952 17.4815 13.536L18.6495 14.272C18.3188 14.8587 17.8495 15.312 17.2415 15.632C16.6442 15.9413 15.9615 16.096 15.1935 16.096ZM19.7287 16V7.52H21.2647V16H19.7287ZM20.4967 5.888C20.1981 5.888 19.9474 5.792 19.7447 5.6C19.5527 5.408 19.4567 5.17333 19.4567 4.896C19.4567 4.608 19.5527 4.368 19.7447 4.176C19.9474 3.984 20.1981 3.888 20.4967 3.888C20.7954 3.888 21.0407 3.984 21.2327 4.176C21.4354 4.35733 21.5367 4.58667 21.5367 4.864C21.5367 5.152 21.4407 5.39733 21.2487 5.6C21.0567 5.792 20.8061 5.888 20.4967 5.888ZM27.1735 16.096C26.2668 16.096 25.4668 15.9093 24.7735 15.536C24.0908 15.1627 23.5575 14.6507 23.1735 14C22.8002 13.3493 22.6135 12.6027 22.6135 11.76C22.6135 10.9173 22.7948 10.1707 23.1575 9.52C23.5308 8.86933 24.0375 8.36267 24.6775 8C25.3282 7.62667 26.0588 7.44 26.8695 7.44C27.6908 7.44 28.4162 7.62133 29.0455 7.984C29.6748 8.34667 30.1655 8.85867 30.5175 9.52C30.8802 10.1707 31.0615 10.9333 31.0615 11.808C31.0615 11.872 31.0562 11.9467 31.0455 12.032C31.0455 12.1173 31.0402 12.1973 31.0295 12.272H23.8135V11.168H30.2295L29.6055 11.552C29.6162 11.008 29.5042 10.5227 29.2695 10.096C29.0348 9.66933 28.7095 9.33867 28.2935 9.104C27.8882 8.85867 27.4135 8.736 26.8695 8.736C26.3362 8.736 25.8615 8.85867 25.4455 9.104C25.0295 9.33867 24.7042 9.67467 24.4695 10.112C24.2348 10.5387 24.1175 11.0293 24.1175 11.584V11.84C24.1175 12.4053 24.2455 12.912 24.5015 13.36C24.7682 13.7973 25.1362 14.1387 25.6055 14.384C26.0748 14.6293 26.6135 14.752 27.2215 14.752C27.7228 14.752 28.1762 14.6667 28.5815 14.496C28.9975 14.3253 29.3602 14.0693 29.6695 13.728L30.5175 14.72C30.1335 15.168 29.6535 15.5093 29.0775 15.744C28.5122 15.9787 27.8775 16.096 27.1735 16.096ZM36.9224 7.44C37.6157 7.44 38.2237 7.57333 38.7464 7.84C39.2797 8.10667 39.6957 8.512 39.9944 9.056C40.293 9.6 40.4424 10.288 40.4424 11.12V16H38.9064V11.296C38.9064 10.4747 38.7037 9.856 38.2984 9.44C37.9037 9.024 37.3437 8.816 36.6184 8.816C36.0744 8.816 35.5997 8.92267 35.1944 9.136C34.789 9.34933 34.4744 9.664 34.2504 10.08C34.037 10.496 33.9304 11.0133 33.9304 11.632V16H32.3944V7.52H33.8664V9.808L33.6264 9.2C33.9037 8.64533 34.3304 8.21333 34.9064 7.904C35.4824 7.59467 36.1544 7.44 36.9224 7.44ZM46.181 16.096C45.317 16.096 44.5437 15.9093 43.861 15.536C43.189 15.1627 42.661 14.6507 42.277 14C41.893 13.3493 41.701 12.6027 41.701 11.76C41.701 10.9173 41.893 10.1707 42.277 9.52C42.661 8.86933 43.189 8.36267 43.861 8C44.5437 7.62667 45.317 7.44 46.181 7.44C46.949 7.44 47.6317 7.59467 48.229 7.904C48.837 8.20267 49.3063 8.65067 49.637 9.248L48.469 10C48.1917 9.584 47.8503 9.28 47.445 9.088C47.0503 8.88533 46.6237 8.784 46.165 8.784C45.6103 8.784 45.1143 8.90667 44.677 9.152C44.2397 9.39733 43.893 9.744 43.637 10.192C43.381 10.6293 43.253 11.152 43.253 11.76C43.253 12.368 43.381 12.896 43.637 13.344C43.893 13.792 44.2397 14.1387 44.677 14.384C45.1143 14.6293 45.6103 14.752 46.165 14.752C46.6237 14.752 47.0503 14.656 47.445 14.464C47.8503 14.2613 48.1917 13.952 48.469 13.536L49.637 14.272C49.3063 14.8587 48.837 15.312 48.229 15.632C47.6317 15.9413 46.949 16.096 46.181 16.096ZM54.4766 16.096C53.57 16.096 52.77 15.9093 52.0766 15.536C51.394 15.1627 50.8606 14.6507 50.4766 14C50.1033 13.3493 49.9166 12.6027 49.9166 11.76C49.9166 10.9173 50.098 10.1707 50.4606 9.52C50.834 8.86933 51.3406 8.36267 51.9806 8C52.6313 7.62667 53.362 7.44 54.1726 7.44C54.994 7.44 55.7193 7.62133 56.3486 7.984C56.978 8.34667 57.4686 8.85867 57.8206 9.52C58.1833 10.1707 58.3646 10.9333 58.3646 11.808C58.3646 11.872 58.3593 11.9467 58.3486 12.032C58.3486 12.1173 58.3433 12.1973 58.3326 12.272H51.1166V11.168H57.5326L56.9086 11.552C56.9193 11.008 56.8073 10.5227 56.5726 10.096C56.338 9.66933 56.0126 9.33867 55.5966 9.104C55.1913 8.85867 54.7166 8.736 54.1726 8.736C53.6393 8.736 53.1646 8.85867 52.7486 9.104C52.3326 9.33867 52.0073 9.67467 51.7726 10.112C51.538 10.5387 51.4206 11.0293 51.4206 11.584V11.84C51.4206 12.4053 51.5486 12.912 51.8046 13.36C52.0713 13.7973 52.4393 14.1387 52.9086 14.384C53.378 14.6293 53.9166 14.752 54.5246 14.752C55.026 14.752 55.4793 14.6667 55.8846 14.496C56.3006 14.3253 56.6633 14.0693 56.9726 13.728L57.8206 14.72C57.4366 15.168 56.9566 15.5093 56.3806 15.744C55.8153 15.9787 55.1806 16.096 54.4766 16.096Z" fill="#8447E9"/>
<rect x="69.904" y="1" width="2" height="18" fill="#8447E9"/>
<path d="M83.584 16V4.8H84.896L89.92 13.264H89.216L94.176 4.8H95.488L95.504 16H93.968L93.952 7.216H94.32L89.904 14.64H89.168L84.72 7.216H85.12V16H83.584ZM103.105 16V14.208L103.025 13.872V10.816C103.025 10.1653 102.833 9.664 102.449 9.312C102.076 8.94933 101.511 8.768 100.753 8.768C100.252 8.768 99.7612 8.85333 99.2812 9.024C98.8012 9.184 98.3959 9.40267 98.0652 9.68L97.4252 8.528C97.8626 8.176 98.3852 7.90933 98.9932 7.728C99.6119 7.536 100.257 7.44 100.929 7.44C102.092 7.44 102.988 7.72267 103.617 8.288C104.247 8.85333 104.561 9.71733 104.561 10.88V16H103.105ZM100.321 16.096C99.6919 16.096 99.1372 15.9893 98.6572 15.776C98.1879 15.5627 97.8252 15.2693 97.5692 14.896C97.3132 14.512 97.1852 14.08 97.1852 13.6C97.1852 13.1413 97.2919 12.7253 97.5052 12.352C97.7292 11.9787 98.0866 11.68 98.5772 11.456C99.0786 11.232 99.7506 11.12 100.593 11.12H103.281V12.224H100.657C99.8892 12.224 99.3719 12.352 99.1052 12.608C98.8386 12.864 98.7052 13.1733 98.7052 13.536C98.7052 13.952 98.8706 14.288 99.2012 14.544C99.5319 14.7893 99.9906 14.912 100.577 14.912C101.153 14.912 101.655 14.784 102.081 14.528C102.519 14.272 102.833 13.8987 103.025 13.408L103.329 14.464C103.127 14.9653 102.769 15.3653 102.257 15.664C101.745 15.952 101.1 16.096 100.321 16.096ZM106.815 19.2C106.41 19.2 106.015 19.1307 105.631 18.992C105.247 18.864 104.917 18.672 104.639 18.416L105.295 17.264C105.509 17.4667 105.743 17.6213 105.999 17.728C106.255 17.8347 106.527 17.888 106.815 17.888C107.189 17.888 107.498 17.792 107.743 17.6C107.989 17.408 108.218 17.0667 108.431 16.576L108.959 15.408L109.119 15.216L112.447 7.52H113.951L109.839 16.848C109.594 17.4453 109.317 17.9147 109.007 18.256C108.709 18.5973 108.378 18.8373 108.015 18.976C107.653 19.1253 107.253 19.2 106.815 19.2ZM108.831 16.272L104.959 7.52H106.559L109.855 15.072L108.831 16.272ZM119.282 16V5.44L119.97 6.192H116.754V4.8H120.866V16H119.282ZM127.092 16.128C126.217 16.128 125.433 15.904 124.74 15.456C124.057 15.008 123.513 14.3573 123.108 13.504C122.713 12.6507 122.516 11.616 122.516 10.4C122.516 9.184 122.713 8.14933 123.108 7.296C123.513 6.44267 124.057 5.792 124.74 5.344C125.433 4.896 126.217 4.672 127.092 4.672C127.956 4.672 128.734 4.896 129.428 5.344C130.121 5.792 130.665 6.44267 131.06 7.296C131.454 8.14933 131.652 9.184 131.652 10.4C131.652 11.616 131.454 12.6507 131.06 13.504C130.665 14.3573 130.121 15.008 129.428 15.456C128.734 15.904 127.956 16.128 127.092 16.128ZM127.092 14.704C127.678 14.704 128.19 14.544 128.628 14.224C129.076 13.904 129.422 13.424 129.668 12.784C129.924 12.144 130.052 11.3493 130.052 10.4C130.052 9.45067 129.924 8.656 129.668 8.016C129.422 7.376 129.076 6.896 128.628 6.576C128.19 6.256 127.678 6.096 127.092 6.096C126.505 6.096 125.988 6.256 125.54 6.576C125.092 6.896 124.74 7.376 124.484 8.016C124.238 8.656 124.116 9.45067 124.116 10.4C124.116 11.3493 124.238 12.144 124.484 12.784C124.74 13.424 125.092 13.904 125.54 14.224C125.988 14.544 126.505 14.704 127.092 14.704ZM132.28 18.368L133.08 15.136L133.288 16.064C132.979 16.064 132.717 15.968 132.504 15.776C132.301 15.584 132.2 15.3227 132.2 14.992C132.2 14.672 132.301 14.4107 132.504 14.208C132.717 14.0053 132.973 13.904 133.272 13.904C133.581 13.904 133.832 14.0107 134.024 14.224C134.216 14.4267 134.312 14.6827 134.312 14.992C134.312 15.0987 134.301 15.2053 134.28 15.312C134.269 15.408 134.243 15.5253 134.2 15.664C134.168 15.792 134.115 15.952 134.04 16.144L133.288 18.368H132.28ZM138.346 16V14.912L142.906 10.512C143.311 10.128 143.61 9.792 143.802 9.504C144.005 9.20533 144.138 8.93333 144.202 8.688C144.277 8.432 144.314 8.18667 144.314 7.952C144.314 7.376 144.111 6.92267 143.706 6.592C143.301 6.26133 142.709 6.096 141.93 6.096C141.333 6.096 140.794 6.19733 140.314 6.4C139.834 6.592 139.418 6.896 139.066 7.312L137.978 6.368C138.405 5.824 138.975 5.408 139.69 5.12C140.415 4.82133 141.21 4.672 142.074 4.672C142.853 4.672 143.53 4.8 144.106 5.056C144.682 5.30133 145.125 5.65867 145.434 6.128C145.754 6.59733 145.914 7.152 145.914 7.792C145.914 8.15467 145.866 8.512 145.77 8.864C145.674 9.216 145.493 9.58933 145.226 9.984C144.959 10.3787 144.575 10.8213 144.074 11.312L140.01 15.232L139.626 14.608H146.394V16H138.346ZM151.47 16.128C150.595 16.128 149.811 15.904 149.118 15.456C148.435 15.008 147.891 14.3573 147.486 13.504C147.091 12.6507 146.894 11.616 146.894 10.4C146.894 9.184 147.091 8.14933 147.486 7.296C147.891 6.44267 148.435 5.792 149.118 5.344C149.811 4.896 150.595 4.672 151.47 4.672C152.334 4.672 153.113 4.896 153.806 5.344C154.499 5.792 155.043 6.44267 155.438 7.296C155.833 8.14933 156.03 9.184 156.03 10.4C156.03 11.616 155.833 12.6507 155.438 13.504C155.043 14.3573 154.499 15.008 153.806 15.456C153.113 15.904 152.334 16.128 151.47 16.128ZM151.47 14.704C152.057 14.704 152.569 14.544 153.006 14.224C153.454 13.904 153.801 13.424 154.046 12.784C154.302 12.144 154.43 11.3493 154.43 10.4C154.43 9.45067 154.302 8.656 154.046 8.016C153.801 7.376 153.454 6.896 153.006 6.576C152.569 6.256 152.057 6.096 151.47 6.096C150.883 6.096 150.366 6.256 149.918 6.576C149.47 6.896 149.118 7.376 148.862 8.016C148.617 8.656 148.494 9.45067 148.494 10.4C148.494 11.3493 148.617 12.144 148.862 12.784C149.118 13.424 149.47 13.904 149.918 14.224C150.366 14.544 150.883 14.704 151.47 14.704ZM156.59 16V14.912L161.15 10.512C161.555 10.128 161.854 9.792 162.046 9.504C162.248 9.20533 162.382 8.93333 162.446 8.688C162.52 8.432 162.558 8.18667 162.558 7.952C162.558 7.376 162.355 6.92267 161.95 6.592C161.544 6.26133 160.952 6.096 160.174 6.096C159.576 6.096 159.038 6.19733 158.558 6.4C158.078 6.592 157.662 6.896 157.31 7.312L156.222 6.368C156.648 5.824 157.219 5.408 157.934 5.12C158.659 4.82133 159.454 4.672 160.318 4.672C161.096 4.672 161.774 4.8 162.35 5.056C162.926 5.30133 163.368 5.65867 163.678 6.128C163.998 6.59733 164.158 7.152 164.158 7.792C164.158 8.15467 164.11 8.512 164.014 8.864C163.918 9.216 163.736 9.58933 163.47 9.984C163.203 10.3787 162.819 10.8213 162.318 11.312L158.254 15.232L157.87 14.608H164.638V16H156.59ZM164.977 16V14.912L169.537 10.512C169.943 10.128 170.241 9.792 170.433 9.504C170.636 9.20533 170.769 8.93333 170.833 8.688C170.908 8.432 170.945 8.18667 170.945 7.952C170.945 7.376 170.743 6.92267 170.337 6.592C169.932 6.26133 169.34 6.096 168.561 6.096C167.964 6.096 167.425 6.19733 166.945 6.4C166.465 6.592 166.049 6.896 165.697 7.312L164.609 6.368C165.036 5.824 165.607 5.408 166.321 5.12C167.047 4.82133 167.841 4.672 168.705 4.672C169.484 4.672 170.161 4.8 170.737 5.056C171.313 5.30133 171.756 5.65867 172.065 6.128C172.385 6.59733 172.545 7.152 172.545 7.792C172.545 8.15467 172.497 8.512 172.401 8.864C172.305 9.216 172.124 9.58933 171.857 9.984C171.591 10.3787 171.207 10.8213 170.705 11.312L166.641 15.232L166.257 14.608H173.025V16H164.977Z" fill="#8447E9"/>
</svg>
